Coordinates
version=1
nRows=5
nColumns=40
inDegrees=yes

Units are S.I. units (second, meters, Newtons, ...)
If the header above contains a line with 'inDegrees', this indicates whether rotational values are in degrees (yes) or radians (no).

endheader
time	pelvis_tilt	pelvis_list	pelvis_rotation	pelvis_tx	pelvis_ty	pelvis_tz	hip_flexion_r	hip_adduction_r	hip_rotation_r	knee_angle_r	knee_angle_r_beta	ankle_angle_r	subtalar_angle_r	mtp_angle_r	hip_flexion_l	hip_adduction_l	hip_rotation_l	knee_angle_l	knee_angle_l_beta	ankle_angle_l	subtalar_angle_l	mtp_angle_l	lumbar_extension	lumbar_bending	lumbar_rotation	arm_flex_r	arm_add_r	arm_rot_r	elbow_flex_r	pro_sup_r	wrist_flex_r	wrist_dev_r	arm_flex_l	arm_add_l	arm_rot_l	elbow_flex_l	pro_sup_l	wrist_flex_l	wrist_dev_l
      8.01700000	      6.71400465	      4.58261988	      5.45760095	      0.05494392	      1.32198053	     -0.00455187	     42.64914709	    -17.80611956	    -10.49038806	     53.25133678	      0.92941116	    -14.52716595	    -17.56916924	      0.00000000	     37.10050386	    -10.25345599	     -7.13939346	     89.79720936	      1.56725696	    -15.18776780	     -2.47546357	      0.00000000	    -62.44295736	     -1.62648521	     -4.77992116	     51.40326473	     12.39230037	    -55.23557357	     44.00696318	     77.70568299	      0.00000000	      0.00000000	     63.21310964	     15.90139497	    -63.28931021	     47.20237371	     63.36336485	      0.00000000	      0.00000000
      8.03300000	      6.59383469	      5.74954812	      6.57577138	      0.05418243	      1.32181943	     -0.00463806	     37.29902745	    -18.38832819	    -12.86756596	     46.54186021	      0.81230870	    -16.69146809	    -17.18428088	      0.00000000	     41.37998234	     -9.39975499	     -6.02409121	     95.87730712	      1.67337469	    -14.79199412	     -2.31994330	      0.00000000	    -62.26205176	     -1.99984423	     -6.27786841	     50.91800705	     12.31060476	    -55.81828423	     44.10231696	     77.67854894	      0.00000000	      0.00000000	     63.11300294	     16.31735351	    -62.67628062	     47.53678346	     63.72239375	      0.00000000	      0.00000000
      8.05000000	      6.35241536	      6.80473241	      7.63077433	      0.05350663	      1.32134189	     -0.00478795	     32.50188051	    -18.86813178	    -15.24587859	     40.88969757	      0.71365985	    -19.27352736	    -16.81343440	      0.00000000	     45.62015938	     -8.49956949	     -5.21018244	    100.69718621	      1.75749745	    -13.87858569	     -2.38647645	      0.00000000	    -62.00492620	     -2.32687525	     -7.63996749	     50.42671023	     12.11536862	    -56.14249866	     44.12651489	     77.71637310	      0.00000000	      0.00000000	     62.95486743	     16.67554759	    -62.00615540	     47.76475574	     64.18626625	      0.00000000	      0.00000000
      8.06700000	      6.00831195	      7.66762771	      8.34380380	      0.05278757	      1.32066156	     -0.00473468	     28.55997278	    -19.14437179	    -17.16324717	     36.73985129	      0.64123137	    -22.36496077	    -16.89540373	      0.00000000	     49.72758284	     -7.79380798	     -4.92567424	    104.16098804	      1.81795219	    -11.88253873	     -3.20076716	      0.00000000	    -61.66128348	     -2.77964053	     -8.63238116	     49.90511829	     11.65650205	    -55.95563576	     43.98440663	     77.69490971	      0.00000000	      0.00000000	     62.66615158	     16.91398036	    -61.03229412	     47.81439190	     64.49390164	      0.00000000	      0.00000000
      8.08300000	      5.70176720	      8.28444481	      9.01948998	      0.05216677	      1.32004030	     -0.00473363	     25.01022621	    -19.28123455	    -19.01911064	     33.89307613	      0.59154577	    -25.31233537	    -17.22362563	      0.00000000	     53.71868511	     -7.14596427	     -4.73896661	    106.43159373	      1.85758174	     -9.44570908	     -4.29199941	      0.00000000	    -61.37076079	     -3.05618763	     -9.39374909	     49.40363147	     11.09430157	    -55.47512868	     43.74940351	     77.59833578	      0.00000000	      0.00000000	     62.37243041	     17.07611195	    -59.99841392	     47.75089998	     64.75778263	      0.00000000	      0.00000000
